<?xml version="1.0" encoding="UTF-8" standalone="no"?><!DOCTYPE svg PUBLIC "-//W3C//DTD SVG 1.1//EN" "http://www.w3.org/Graphics/SVG/1.1/DTD/svg11.dtd"><svg width="100%" height="100%" viewBox="0 0 1544 500" version="1.1" xmlns="http://www.w3.org/2000/svg" xmlns:xlink="http://www.w3.org/1999/xlink" xml:space="preserve" xmlns:serif="http://www.serif.com/" style="fill-rule:evenodd;clip-rule:evenodd;stroke-linejoin:round;stroke-miterlimit:2;"><rect x="18.901" y="45.548" width="388.823" height="436.737" style="fill:#fff;"/><path d="M362.895,239.928c0,40.753 -14.51,75.558 -43.531,104.415c-28.857,29.022 -63.662,43.532 -104.416,43.532c-40.793,0 -75.681,-14.51 -104.661,-43.532c-28.856,-28.857 -43.285,-63.662 -43.285,-104.415c0,-40.794 14.429,-75.682 43.285,-104.661c28.98,-28.857 63.868,-43.286 104.661,-43.286c40.754,0 75.559,14.429 104.416,43.286c29.021,28.979 43.531,63.867 43.531,104.661Z" style="fill:url(#_Radial1);"/><path d="M349.064,317.854l117.795,50.332l-193.188,102.245l-53.165,-10.929l-5.002,-1.112l0,-23.155l133.56,-117.381Z" style="fill:#c0d0b6;"/><path d="M52.43,281.546l0,-28.218l15.129,7.841l11.545,10.683l25.688,8.645l20.931,15.744l14.203,2.471l37.851,27.23l37.975,6.792l0,33.405l-163.322,-84.593Z" style="fill:#e76e4a;"/><path d="M215.752,366.139l0,-33.405l-37.975,-6.792l-37.851,-27.23l-14.203,-2.471l-20.931,-15.744l-25.688,-8.645l-11.545,-10.683l-15.129,-7.841l73.17,-37.975l71.751,-33.652l18.401,-9.633l163.012,57.054l0,51.436l-9.076,5.743l-38.16,5.062l-42.606,36.493l-73.17,38.283Z" style="fill:#b74826;"/><path d="M215.752,458.39l-163.322,-84.593l0,-92.251l163.322,84.593l0,92.251Z" style="fill:#c29568;"/><path d="M378.764,280.558l0,93.239l-163.012,84.593l0,-92.251l73.17,-38.283l42.606,-36.493l38.16,-5.062l9.076,-5.743Z" style="fill:#986635;"/><path d="M261.198,134.896l1.42,0.062l51.126,27.416l6.731,11.053l-33.282,-9.201l-24.575,-29.268l-24.884,13.461l-25.44,4.878l-31.677,-22.229l8.089,-0.433l31.43,2.532l-17.598,-14.51l20.377,4.755l9.878,9.817l28.405,1.667Zm79.901,49.831l23.711,2.037l14.077,6.236l-33.59,26.12l0,-0.062l-0.185,0.185l-32.108,10.496l-21.611,-15.251l-8.769,-7.841l-64.897,13.46l35.999,23.897l-37.974,0l-21.056,-6.299l22.785,-17.598l0.123,-0.062l42.111,-27.6l22.909,14.202l35.134,-9.879l-35.134,-10.066l-20.747,-14.079l17.969,0l2.778,14.079l11.052,-14.758l26.799,1.483l9.51,0l11.114,11.3l-23.341,12.041l27.539,22.29l-4.198,-34.331Zm-164.496,-16.796l-28.835,15.931l-29.947,-10.683l0,6.793l-35.196,0l0,41.556l32.356,-20.81l0,-0.246l0.184,0l15.561,-7.904l8.089,-4.136l8.953,-4.57l27.107,10.744l35.133,-6.36l11.857,11.175l-29.145,6.484l-17.845,-11.299l-34.764,11.732l-25.563,4.877l-1.976,21.366l-29.947,-11.053l-30.195,-19.945l30.195,-21.611l35.196,-6.793l20.994,-15.56l7.039,7.966l30.749,2.346Zm-43.963,79.222l-20.068,-14.326l0,-0.246l18.154,-17.228l8.089,-7.595l1.296,-1.42l25.503,27.045l-32.974,13.77Zm83.112,-3.149l65.574,14.819l-33.034,10.559l-32.54,16.795l0,-42.173Z" style="fill:#77bbb6;"/><path d="M341.099,184.727l-11.114,-11.3l34.825,13.337l-23.711,-2.037Zm-79.901,-49.831l-28.405,-1.667l15.376,-9.817l13.029,11.484Zm-39.333,64.525l40.012,-26.798l-2.162,19.822l22.909,-5.743l35.134,10.066l-35.134,9.879l-22.909,-14.202l-37.85,6.976Zm-41.248,-68.353l31.677,22.229l13.46,2.409l11.98,-7.287l5.064,17.783l-45.447,6.73l14.943,-19.635l-16.919,-5.866l-14.758,-16.363Zm-32.849,52.794l62.24,4.384l-35.133,6.36l-27.107,-10.744l-29.947,-3.89l-2.84,20.5l0,0.246l-32.356,20.81l0,-41.556l35.196,0l0,-6.793l29.947,10.683Zm67.984,60.142l-63.353,9.324l42.297,-15.623l21.056,6.299l37.974,0l27.6,14.819l-65.574,-14.819Zm-39.149,-76.073l-30.749,-2.346l7.533,-10.56l23.216,12.906Z" style="fill:#60afa7;"/><path d="M152.399,253.328l63.353,32.849l0,44.087l-25.748,-4.569l-12.227,-2.223l-37.851,-27.231l-14.203,-2.469l-20.931,-15.746l-25.688,-8.644l-11.545,-10.683l-15.129,-7.841l0,-49.275l30.195,19.945l29.947,11.053l0,0.246l20.068,14.326l19.759,6.175Zm50.139,-134.671l17.598,14.51l-31.43,-2.532l13.832,-11.978Zm30.255,14.572l-9.878,-9.817l25.254,0l-15.376,9.817Zm54.4,30.997l-25.316,8.397l-19.079,-6.421l-5.064,-17.783l24.884,-13.461l24.575,29.268Zm33.282,9.201l-6.731,-11.053l-1.481,-0.865l28.095,3.458l24.452,21.797l-34.825,-13.337l-9.51,0Zm-110.467,14.819l-62.24,-4.384l-8.953,4.57l-8.089,4.136l-15.561,7.904l-0.184,0l2.84,-20.5l29.947,3.89l28.835,-15.931l20.748,5.001l45.447,-6.73l-24.02,16.178l-8.77,5.866Zm-69.897,18.092l34.764,-11.732l17.845,11.299l24.884,14.14l-0.123,0.062l-22.785,17.598l-29.082,-4.322l27.106,-27.478l-52.609,0.433Zm141.215,52.485l-27.6,-14.819l-35.999,-23.897l64.897,-13.46l8.769,7.841l21.611,15.251l-31.678,29.084Z" style="fill:#97d3be;"/><path d="M345.297,219.12l33.59,-26.12l0,64.526l-15.621,10.188l-44.027,13.338l-38.097,26.305l-65.39,22.907l0,-44.087l32.54,-16.795l33.034,-10.559l31.678,-29.084l32.108,-10.496l0.185,0.432l0,-0.555Z" style="fill:#668ab1;"/><path d="M345.297,219.058l0,0.617l-0.185,-0.432l0.185,-0.185Z" style="fill:#f07e21;"/><path d="M293.676,171.944l-13.83,0.679l-17.969,0l25.316,-8.397l6.483,7.718Zm-98.98,65.761l-42.297,15.623l-19.759,-6.175l32.974,-13.77l29.082,4.322Z" style="fill:#81cbad;"/><path d="M165.614,233.383l-25.503,-27.045l52.609,-0.433l-27.106,27.478Z" style="fill:#58ada5;"/><path d="M176.603,167.931l-23.216,-12.906l27.23,-23.957l14.758,16.363l16.919,5.866l-14.943,19.635l-20.748,-5.001Zm85.274,4.692l-40.012,26.798l-11.857,-11.175l8.77,-5.866l24.02,-16.178l19.079,6.421Z" style="fill:#98cdc8;"/><path d="M293.676,171.944l-11.052,14.758l-2.778,-14.079l13.83,-0.679Zm-71.811,27.477l37.85,-6.976l-42.111,27.6l-24.884,-14.14l29.145,-6.484Zm-9.571,-46.124l25.44,-4.878l-11.98,7.287l-13.46,-2.409Z" style="fill:#85cfce;"/><path d="M287.193,164.226l33.282,9.201l-26.799,-1.483l-6.483,-7.718Z" style="fill:#a5d0cc;"/><path d="M145.854,165.585l-7.039,-7.966l14.572,-2.594l-7.533,10.56Zm113.861,26.86l2.162,-19.822l20.747,14.079l-22.909,5.743Zm81.384,-7.718l4.198,34.331l-27.539,-22.29l23.341,-12.041Zm-188.7,68.601l63.353,-9.324l0,42.173l-63.353,-32.849Zm-12.288,-46.99l-1.296,1.42l-8.089,7.595l-18.154,17.228l1.976,-21.366l25.563,-4.877Z" style="fill:#c3e5d7;"/><path d="M103.827,209.394l0,-3.249l2.803,-1.454l0,3.249l-2.803,1.454Z" style="fill:#668ab1;"/><path d="M103.827,206.145l-2.804,-1.454l2.804,-1.455l2.803,1.455l-2.803,1.454Z" style="fill:#77bbb6;"/><path d="M101.023,204.691l2.804,1.454l0,3.249l-2.804,-1.454l0,-3.249Z" style="fill:#97d3be;"/><path d="M264.319,203.309l-1.077,-0.56l1.077,-0.56l1.079,0.56l-1.079,0.56Z" style="fill:#98cdc8;"/><path d="M263.242,202.749l1.077,0.56l0,1.249l-1.077,-0.558l0,-1.251Z" style="fill:#cce7e3;"/><path d="M264.319,204.558l0,-1.249l1.079,-0.56l0,1.251l-1.079,0.558Z" style="fill:#8ec2ce;"/><path d="M187.383,151.132l-1.078,-0.559l1.078,-0.56l1.078,0.56l-1.078,0.559Z" style="fill:#98cdc8;"/><path d="M186.305,150.573l1.078,0.559l0,1.25l-1.078,-0.559l0,-1.25Z" style="fill:#cce7e3;"/><path d="M187.383,152.382l0,-1.25l1.078,-0.559l0,1.25l-1.078,0.559Z" style="fill:#8ec2ce;"/><path d="M152.434,171.201l-1.078,-0.561l1.078,-0.559l1.078,0.559l-1.078,0.561Z" style="fill:#98cdc8;"/><path d="M151.356,170.64l1.078,0.561l0,1.248l-1.078,-0.558l0,-1.251Z" style="fill:#cce7e3;"/><path d="M152.434,172.449l0,-1.248l1.078,-0.561l0,1.251l-1.078,0.558Z" style="fill:#8ec2ce;"/><path d="M171.823,151.565l-1.078,-0.559l1.078,-0.56l1.079,0.56l-1.079,0.559Z" style="fill:#98cdc8;"/><path d="M170.745,151.006l1.078,0.559l0,1.25l-1.078,-0.56l0,-1.249Z" style="fill:#cce7e3;"/><path d="M171.823,152.815l0,-1.25l1.079,-0.559l0,1.249l-1.079,0.56Z" style="fill:#8ec2ce;"/><path d="M100.875,189.539l-1.078,-0.559l1.078,-0.559l1.079,0.559l-1.079,0.559Z" style="fill:#98cdc8;"/><path d="M99.797,188.98l1.078,0.559l0,1.25l-1.078,-0.559l0,-1.25Z" style="fill:#cce7e3;"/><path d="M100.875,190.789l0,-1.25l1.079,-0.559l0,1.25l-1.079,0.559Z" style="fill:#8ec2ce;"/><path d="M263.394,226.897l-1.079,-0.56l1.079,-0.559l1.077,0.559l-1.077,0.56Z" style="fill:#98cdc8;"/><path d="M262.315,226.337l1.079,0.56l0,1.249l-1.079,-0.559l0,-1.25Z" style="fill:#cce7e3;"/><path d="M263.394,228.146l0,-1.249l1.077,-0.56l0,1.25l-1.077,0.559Z" style="fill:#8ec2ce;"/><path d="M288.339,198.123l-1.078,-0.56l1.078,-0.559l1.079,0.559l-1.079,0.56Z" style="fill:#98cdc8;"/><path d="M287.261,197.563l1.078,0.56l0,1.249l-1.078,-0.559l0,-1.25Z" style="fill:#cce7e3;"/><path d="M288.339,199.372l0,-1.249l1.079,-0.56l0,1.25l-1.079,0.559Z" style="fill:#8ec2ce;"/><path d="M249.438,207.261l-1.077,-0.56l1.077,-0.559l1.079,0.559l-1.079,0.56Z" style="fill:#98cdc8;"/><path d="M248.361,206.701l1.077,0.56l0,1.25l-1.077,-0.559l0,-1.251Z" style="fill:#cce7e3;"/><path d="M249.438,208.511l0,-1.25l1.079,-0.56l0,1.251l-1.079,0.559Z" style="fill:#8ec2ce;"/><path d="M274.386,266.045l-1.079,-0.56l1.079,-0.559l1.077,0.559l-1.077,0.56Z" style="fill:#98cdc8;"/><path d="M273.307,265.485l1.079,0.56l0,1.249l-1.079,-0.56l0,-1.249Z" style="fill:#cce7e3;"/><path d="M274.386,267.294l0,-1.249l1.077,-0.56l0,1.249l-1.077,0.56Z" style="fill:#8ec2ce;"/><path d="M176.393,208.991l-1.079,-0.561l1.079,-0.559l1.078,0.559l-1.078,0.561Z" style="fill:#98cdc8;"/><path d="M175.314,208.43l1.079,0.561l0,1.248l-1.079,-0.559l0,-1.25Z" style="fill:#cce7e3;"/><path d="M176.393,210.239l0,-1.248l1.078,-0.561l0,1.25l-1.078,0.559Z" style="fill:#8ec2ce;"/><path d="M336.694,120.817l3.933,-2.781l-2.741,-1.629l-1.192,4.41Zm14.107,3.219l4.888,-2.265l-4.253,-2.902l-3.536,3.458l-3.258,3.219l1.271,0.755l4.888,-2.265Z" style="fill:#5c503e;"/><path d="M345.913,126.301l-1.271,-0.755l3.258,-3.219l-3.258,-3.458l-3.339,2.862l3.339,3.815l0,2.067l1.271,-1.312Zm3.418,0.041l4.331,4.569l4.094,-2.782l-4.77,-4.093l-3.655,2.306Z" style="fill:#463c32;"/><path d="M340.627,118.036l-3.933,2.781l4.609,0.914l3.339,-2.862l-4.015,-0.833Zm12.359,6l-2.185,0l-4.888,2.265l3.418,0.041l3.655,-2.306Zm4.77,4.093l-4.094,2.782l5.919,-1.709l-1.825,-1.073Z" style="fill:#9c836c;"/><path d="M65.779,135.458l5.408,-3.826l-3.768,-2.239l-1.64,6.065Zm12.676,7.54l6.721,-3.116l6.72,-3.113l-5.847,-3.989l-4.863,4.753l-4.479,4.427l1.748,1.038Z" style="fill:#5c503e;"/><path d="M76.707,141.96l4.479,-4.427l-4.479,-4.753l-4.591,3.933l4.591,5.247l0,2.841l1.748,-1.803l-1.748,-1.038Zm6.448,1.093l5.954,6.284l5.629,-3.826l-6.557,-5.629l-5.026,3.171Z" style="fill:#463c32;"/><path d="M65.779,135.458l6.337,1.255l4.591,-3.933l-5.52,-1.148l-5.408,3.826Zm19.397,4.424l-6.721,3.116l4.7,0.055l5.026,-3.171l-3.005,0Zm3.933,9.455l8.141,-2.351l-2.512,-1.475l-5.629,3.826Z" style="fill:#9c836c;"/><path d="M356.041,316.803l-2.716,1.298l0,-2.903l2.716,-1.358l0,2.963Zm-8.89,12.721l-3.953,1.975l0,-4.199l3.953,-1.914l0,4.138Zm-10.806,46.928l0,-5.866l5.494,-2.656l0,5.743l-5.494,2.779Zm-13.092,-3.952l-5.433,2.717l0,-5.866l5.433,-2.717l0,5.866Zm37.235,-21.859l0,2.964l-2.717,1.297l0,-2.903l2.717,-1.358Zm13.523,3.149l-4.014,2.038l0,-4.322l4.014,-1.914l0,4.198Z" style="fill:#7c562e;"/><path d="M148.879,239.31l1.234,0.309l15.624,-4.507l16.671,0.865l-16.671,8.706l-15.624,-4.199l-1.234,-1.174Z" style="fill:#81cbad;"/><path d="M233.349,209.61l-8.149,4.322l9.262,-9.076l-1.113,4.754Z" style="fill:#85cfce;"/><path d="M280.487,193.924l-1.56,-0.809l1.56,-0.81l1.56,0.81l-1.56,0.809Z" style="fill:#98cdc8;"/><path d="M278.927,193.115l1.56,0.809l0,1.807l-1.56,-0.808l0,-1.808Z" style="fill:#cce7e3;"/><path d="M280.487,195.731l0,-1.807l1.56,-0.809l0,1.808l-1.56,0.808Z" style="fill:#8ec2ce;"/><path d="M239.409,174.591l1.561,-0.81l1.558,0.81l-1.558,0.808l-1.561,-0.808Z" style="fill:#98cdc8;"/><path d="M240.97,177.207l-1.561,-0.809l0,-1.807l1.561,0.808l0,1.808Z" style="fill:#cce7e3;"/><path d="M240.97,177.207l0,-1.808l1.558,-0.808l0,1.807l-1.558,0.809Z" style="fill:#8ec2ce;"/><path d="M216.023,139.524l-1.561,-0.808l1.561,-0.81l1.559,0.81l-1.559,0.808Z" style="fill:#98cdc8;"/><path d="M214.462,138.716l1.561,0.808l0,1.808l-1.561,-0.809l0,-1.807Z" style="fill:#cce7e3;"/><path d="M216.023,141.332l0,-1.808l1.559,-0.808l0,1.807l-1.559,0.809Z" style="fill:#8ec2ce;"/><path d="M225.391,135.69l1.561,-0.81l1.56,0.81l-1.56,0.808l-1.561,-0.808Z" style="fill:#98cdc8;"/><path d="M226.952,138.307l-1.561,-0.81l0,-1.807l1.561,0.808l0,1.809Z" style="fill:#cce7e3;"/><path d="M226.952,138.307l0,-1.809l1.56,-0.808l0,1.807l-1.56,0.81Z" style="fill:#8ec2ce;"/><path d="M196.882,257.399l-1.561,-0.809l1.561,-0.808l1.559,0.808l-1.559,0.809Z" style="fill:#98cdc8;"/><path d="M195.321,256.59l1.561,0.809l0,1.807l-1.561,-0.807l0,-1.809Z" style="fill:#cce7e3;"/><path d="M196.882,259.206l0,-1.807l1.559,-0.809l0,1.809l-1.559,0.807Z" style="fill:#8ec2ce;"/><path d="M205.014,255.109l1.561,-0.81l1.559,0.81l-1.559,0.809l-1.561,-0.809Z" style="fill:#98cdc8;"/><path d="M206.575,257.726l-1.561,-0.809l0,-1.808l1.561,0.809l0,1.808Z" style="fill:#cce7e3;"/><path d="M206.575,257.726l0,-1.808l1.559,-0.809l0,1.808l-1.559,0.809Z" style="fill:#8ec2ce;"/><path d="M225.964,230.108l-1.56,-0.81l1.56,-0.808l1.56,0.808l-1.56,0.81Z" style="fill:#98cdc8;"/><path d="M224.404,229.298l1.56,0.81l0,1.807l-1.56,-0.808l0,-1.809Z" style="fill:#cce7e3;"/><path d="M225.964,231.915l0,-1.807l1.56,-0.81l0,1.809l-1.56,0.808Z" style="fill:#8ec2ce;"/><path d="M278.202,242.271l-1.561,-0.809l1.561,-0.808l1.56,0.808l-1.56,0.809Z" style="fill:#98cdc8;"/><path d="M276.641,241.462l1.561,0.809l0,1.807l-1.561,-0.807l0,-1.809Z" style="fill:#cce7e3;"/><path d="M278.202,244.078l0,-1.807l1.56,-0.809l0,1.809l-1.56,0.807Z" style="fill:#8ec2ce;"/><path d="M280.902,233.25l1.561,-0.809l1.559,0.809l-1.559,0.809l-1.561,-0.809Z" style="fill:#98cdc8;"/><path d="M282.463,235.867l-1.561,-0.809l0,-1.808l1.561,0.809l0,1.808Z" style="fill:#cce7e3;"/><path d="M282.463,235.867l0,-1.808l1.559,-0.809l0,1.808l-1.559,0.809Z" style="fill:#8ec2ce;"/><path d="M331.288,195.711l1.078,-0.56l1.078,0.56l-1.078,0.559l-1.078,-0.559Z" style="fill:#98cdc8;"/><path d="M331.288,195.711l1.078,0.559l0,1.25l-1.078,-0.56l0,-1.249Z" style="fill:#cce7e3;"/><path d="M332.366,197.52l0,-1.25l1.078,-0.559l0,1.249l-1.078,0.56Z" style="fill:#8ec2ce;"/><path d="M291.674,156.814l-1.078,-0.56l1.078,-0.559l1.078,0.559l-1.078,0.56Z" style="fill:#98cdc8;"/><path d="M290.596,156.254l1.078,0.56l0,1.249l-1.078,-0.559l0,-1.25Z" style="fill:#cce7e3;"/><path d="M291.674,158.063l0,-1.249l1.078,-0.56l0,1.25l-1.078,0.559Z" style="fill:#8ec2ce;"/><path d="M285.561,193.615l-1.078,-0.56l1.078,-0.56l1.078,0.56l-1.078,0.56Z" style="fill:#98cdc8;"/><path d="M284.483,193.055l1.078,0.56l0,1.249l-1.078,-0.559l0,-1.25Z" style="fill:#cce7e3;"/><path d="M285.561,194.864l0,-1.249l1.078,-0.56l0,1.25l-1.078,0.559Z" style="fill:#8ec2ce;"/><path d="M231.223,270.12l-1.077,-0.56l1.077,-0.559l1.079,0.559l-1.079,0.56Z" style="fill:#98cdc8;"/><path d="M230.146,269.56l1.077,0.56l0,1.249l-1.077,-0.56l0,-1.249Z" style="fill:#cce7e3;"/><path d="M231.223,271.369l0,-1.249l1.079,-0.56l0,1.249l-1.079,0.56Z" style="fill:#8ec2ce;"/><path d="M200.536,162.309l-1.079,-0.559l1.079,-0.56l1.078,0.56l-1.078,0.559Z" style="fill:#98cdc8;"/><path d="M199.457,161.75l1.079,0.559l0,1.25l-1.079,-0.56l0,-1.249Z" style="fill:#cce7e3;"/><path d="M200.536,163.559l0,-1.25l1.078,-0.559l0,1.249l-1.078,0.56Z" style="fill:#8ec2ce;"/><path d="M168.859,177.561l-1.078,-0.56l1.078,-0.56l1.078,0.56l-1.078,0.56Z" style="fill:#98cdc8;"/><path d="M168.859,178.81l0,-1.249l1.078,-0.56l0,1.249l-1.078,0.56Z" style="fill:#8ec2ce;"/><path d="M167.781,177.001l1.078,0.56l0,1.249l-1.078,-0.56l0,-1.249Z" style="fill:#97d3be;"/><path d="M126.727,229.822l0,-1.643l1.419,-0.736l0,1.642l-1.419,0.737Z" style="fill:#668ab1;"/><path d="M126.727,228.179l-1.418,-0.736l1.418,-0.736l1.419,0.736l-1.419,0.736Z" style="fill:#77bbb6;"/><path d="M125.309,227.443l1.418,0.736l0,1.643l-1.418,-0.737l0,-1.642Z" style="fill:#97d3be;"/><path d="M173.917,236.522l0,-1.047l0.926,-0.482l0,1.047l-0.926,0.482Z" style="fill:#668ab1;"/><path d="M173.917,235.475l0,1.047l-0.926,-0.482l0,-1.047l0.926,0.482Z" style="fill:#97d3be;"/><path d="M172.991,234.993l0.926,-0.484l0.926,0.484l-0.926,0.482l-0.926,-0.482Z" style="fill:#ddefec;"/><path d="M165.519,224.297l0,-1.047l0.927,-0.483l0,1.046l-0.927,0.484Z" style="fill:#668ab1;"/><path d="M165.519,223.25l0,1.047l-0.926,-0.484l0,-1.046l0.926,0.483Z" style="fill:#97d3be;"/><path d="M164.593,222.767l0.926,-0.484l0.927,0.484l-0.927,0.483l-0.926,-0.483Z" style="fill:#ddefec;"/><path d="M202.63,221.518l0,-1.047l0.925,-0.483l0,1.046l-0.925,0.484Z" style="fill:#668ab1;"/><path d="M202.63,220.471l0,1.047l-0.927,-0.484l0,-1.046l0.927,0.483Z" style="fill:#97d3be;"/><path d="M201.703,219.988l0.927,-0.484l0.925,0.484l-0.925,0.483l-0.927,-0.483Z" style="fill:#ddefec;"/><path d="M239.185,216.331l0,-1.047l0.925,-0.482l0,1.047l-0.925,0.482Z" style="fill:#668ab1;"/><path d="M239.185,215.284l0,1.047l-0.927,-0.482l0,-1.047l0.927,0.482Z" style="fill:#97d3be;"/><path d="M238.258,214.802l0.927,-0.483l0.925,0.483l-0.925,0.482l-0.927,-0.482Z" style="fill:#ddefec;"/><path d="M244.124,224.235l0,-1.047l0.926,-0.483l0,1.047l-0.926,0.483Z" style="fill:#668ab1;"/><path d="M244.124,223.188l0,1.047l-0.926,-0.483l0,-1.047l0.926,0.483Z" style="fill:#97d3be;"/><path d="M243.198,222.705l0.926,-0.484l0.926,0.484l-0.926,0.483l-0.926,-0.483Z" style="fill:#ddefec;"/><path d="M131.003,236.83l0,-1.046l0.926,-0.482l0,1.046l-0.926,0.482Z" style="fill:#668ab1;"/><path d="M131.003,235.784l0,1.046l-0.927,-0.482l0,-1.046l0.927,0.482Z" style="fill:#97d3be;"/><path d="M130.076,235.302l0.927,-0.484l0.926,0.484l-0.926,0.482l-0.927,-0.482Z" style="fill:#ddefec;"/><path d="M318.269,139.507l0.556,2.057l-2.148,0.425l-1.557,1.78l0,0.962l-0.592,-0.611l-1.593,0.019l-2.019,2.129l-2.761,-0.795l0.853,-0.501l2.222,-1.908l1.02,0l-2.28,-1.055l1.983,-1.353l1.649,1.611l1.518,-1.611l1.872,-0.389l1.277,-0.76Z" style="fill:#b9aa9d;"/><path d="M184.785,223.555l0,-1.047l0.926,-0.482l0,1.047l-0.926,0.482Z" style="fill:#668ab1;"/><path d="M184.785,222.508l0,1.047l-0.926,-0.482l0,-1.047l0.926,0.482Z" style="fill:#97d3be;"/><path d="M183.859,222.026l0.926,-0.484l0.926,0.484l-0.926,0.482l-0.926,-0.482Z" style="fill:#ddefec;"/><path d="M220.413,212.379l0,-1.047l0.926,-0.482l0,1.046l-0.926,0.483Z" style="fill:#668ab1;"/><path d="M220.413,211.332l0,1.047l-0.926,-0.483l0,-1.046l0.926,0.482Z" style="fill:#97d3be;"/><path d="M219.487,210.85l0.926,-0.484l0.926,0.484l-0.926,0.482l-0.926,-0.482Z" style="fill:#ddefec;"/><path d="M273.021,186.693l0,-1.048l0.926,-0.482l0,1.047l-0.926,0.483Z" style="fill:#668ab1;"/><path d="M273.021,185.645l0,1.048l-0.926,-0.483l0,-1.047l0.926,0.482Z" style="fill:#97d3be;"/><path d="M272.095,185.163l0.926,-0.483l0.926,0.483l-0.926,0.482l-0.926,-0.482Z" style="fill:#ddefec;"/><path d="M276.973,180.765l0,-1.047l0.926,-0.483l0,1.046l-0.926,0.484Z" style="fill:#668ab1;"/><path d="M276.973,179.718l0,1.047l-0.926,-0.484l0,-1.046l0.926,0.483Z" style="fill:#97d3be;"/><path d="M276.047,179.235l0.926,-0.484l0.926,0.484l-0.926,0.483l-0.926,-0.483Z" style="fill:#ddefec;"/><path d="M167.063,203.241l0,-1.047l0.926,-0.483l0,1.047l-0.926,0.483Z" style="fill:#668ab1;"/><path d="M167.063,202.194l0,1.047l-0.926,-0.483l0,-1.047l0.926,0.483Z" style="fill:#97d3be;"/><path d="M166.137,201.711l0.926,-0.484l0.926,0.484l-0.926,0.483l-0.926,-0.483Z" style="fill:#ddefec;"/><path d="M67.07,333.873l3.82,1.987l-0.019,4.132l-3.801,-1.968l0,-4.151Z" style="fill:#d0ad8c;"/><path d="M65.902,310.716l2.28,1.187l-0.011,2.467l-2.269,-1.175l0,-2.479Z" style="fill:#d0ad8c;"/><path d="M74.174,368.82l2.281,1.187l-0.011,2.466l-2.27,-1.175l0,-2.478Z" style="fill:#d0ad8c;"/><path d="M98.503,364.005l2.281,1.186l-0.013,2.467l-2.268,-1.176l0,-2.477Z" style="fill:#d0ad8c;"/><path d="M59.352,339.676l3.82,1.988l-0.019,4.133l-3.801,-1.97l0,-4.151Z" style="fill:#d0ad8c;"/><path d="M192.417,400.992l3.82,1.987l-0.019,4.132l-3.801,-1.968l0,-4.151Z" style="fill:#d0ad8c;"/><path d="M178.154,355.855l3.82,1.987l-0.019,4.132l-3.801,-1.968l0,-4.151Z" style="fill:#d0ad8c;"/><path d="M119.673,110.753l14.82,6.669l22.043,-10.374l0.247,7.41l-22.415,19.698l-14.325,-8.645l-0.37,-14.758Z" style="fill:#bdb0a8;"/><path d="M156.536,107.048l-22.043,10.374l-14.82,-6.669l29.022,-7.595l7.841,3.89Z" style="fill:#e9e4e2;"/><path d="M124.798,190.16l0,-2.717l2.099,-1.111l-2.099,3.828Zm7.039,-5.279l-3.272,5.958l-3.057,1.606l4.168,-7.564l2.161,-1.143l0,1.143Z" style="fill:#fecd03;"/><path d="M117.451,186.208l1.882,-1.513l2.347,1.174l-4.075,3.334l-0.154,0.123l0,-3.118Zm2.624,4.23l4.075,-3.334l0.648,0.339l0,2.717l-2.007,1.636l-2.716,-1.358Z" style="fill:#f07e21;"/><path d="M120.075,190.438l-2.47,-1.235l4.075,-3.334l2.47,1.235l-4.075,3.334Zm2.716,1.358l2.007,-1.636l0,2.655l-2.007,-1.019Zm-3.458,-7.101l-1.882,1.513l0,-2.47l1.882,0.957Z" style="fill:#3d2410;"/><path d="M119.333,184.695l-1.882,-0.957l7.347,-3.705l7.039,3.705l-2.161,1.143l-4.168,7.564l-0.71,0.37l0,-2.655l2.099,-3.828l-2.099,1.111l-0.648,-0.339l-2.47,-1.235l-2.347,-1.174Z" style="fill:#58433a;"/><path d="M128.565,190.839l3.272,-5.958l0,4.23l-3.272,1.728Z" style="fill:#72564b;"/><path d="M117.605,189.203l2.47,1.235l2.716,1.358l2.007,1.019l0,13.894l-7.347,-1.606l0,-15.777l0.154,-0.123Z" style="fill:#c1b0ad;"/><path d="M125.508,192.445l3.057,-1.606l3.272,-1.728l0,15.992l-7.039,1.606l0,-13.894l0.71,-0.37Z" style="fill:#e6dddd;"/><path d="M121.747,125.264l3.073,1.572l0,58.507l-3.073,-1.608l0,-58.471Z" style="fill:#3f3530;"/><path d="M124.82,185.343l0,-58.507l-3.073,-1.572l3.073,-1.608l3.038,1.608l0,58.471l-3.038,1.608Z" style="fill:#6a5b51;"/><path d="M76.149,93.905l2.747,-2.117l42.01,22.15l-1.545,2.747l-43.212,-22.78Zm80.414,75.692l-30.477,-46.531l17.112,-30.533l-6.667,-6.382l2.747,-2.118l6.668,6.382l-17.113,30.534l30.478,46.532l-2.748,2.116Z" style="fill:#787878;"/><path d="M136.531,86.151l6.667,6.382l-17.112,30.533l30.477,46.531l-5.123,2.462l-31.192,-47.648l-44.099,-23.238l0,-7.268l43.212,22.78l1.545,-2.747l15.625,-27.787Z" style="fill:#cdcccc;"/><path d="M125.733,119.635l0.201,8.614l-7.012,-0.014l-4.349,-1.761l0,-3.547l5.349,-5.639l5.811,2.347Z" style="fill:#787878;"/><path d="M124.004,119.821l-6.811,4.592l-4.349,-1.301l5.35,-5.638l5.81,2.347Z" style="fill:#e9e4e2;"/><path d="M117.193,128.42l0,-4.007l6.811,-4.592l0.2,8.613l-7.011,-0.014Z" style="fill:#bdb0a8;"/><path d="M117.193,124.413l0,4.007l-4.349,-1.76l0,-3.548l4.349,1.301Z" style="fill:#d8cfcb;"/><path d="M248.446,267.745l-19.542,0.525l1.081,-8.429l34.3,3.305l-15.839,4.599Z" style="fill:#60afa7;"/><path d="M223.964,169.721l14.82,6.67l22.043,-10.374l0.248,7.41l-22.416,19.697l-14.324,-8.645l-0.371,-14.758Z" style="fill:#bdb0a8;"/><path d="M260.827,166.017l-22.043,10.374l-14.82,-6.67l29.022,-7.595l7.841,3.891Z" style="fill:#e9e4e2;"/><path d="M236.128,242.706l-7.039,3.705l-7.349,-3.705l7.349,-3.704l7.039,3.704Z" style="fill:#f4993f;"/><path d="M229.089,246.411l7.039,-3.705l0,21.365l-7.039,4.076l0,-21.736Z" style="fill:#cdcccc;"/><path d="M221.74,242.706l7.349,3.705l0,21.736l-7.349,-9.541l0,-15.9Z" style="fill:#a2a2a2;"/><path d="M229.112,244.311l-3.073,-1.607l0,-58.472l3.073,1.572l0,58.507Z" style="fill:#3f3530;"/><path d="M226.039,184.232l3.073,-1.607l3.038,1.607l0,58.472l-3.038,1.607l0,-58.507l-3.073,-1.572Z" style="fill:#6a5b51;"/><path d="M240.822,145.119l2.748,-2.118l6.667,6.382l-17.113,30.534l30.477,46.533l-2.746,2.116l-30.478,-46.531l17.113,-30.533l-6.668,-6.383Zm-60.382,7.755l2.747,-2.118l42.01,22.15l-1.544,2.748l-43.213,-22.78Z" style="fill:#787878;"/><path d="M240.822,145.119l6.668,6.383l-17.113,30.533l30.478,46.531l-5.123,2.462l-31.194,-47.649l-44.098,-23.237l0,-7.268l43.213,22.78l1.544,-2.748l15.625,-27.787Z" style="fill:#cdcccc;"/><path d="M230.025,178.604l0.2,8.614l-7.012,-0.014l-4.35,-1.761l0,-3.548l5.353,-5.638l5.809,2.347Z" style="fill:#787878;"/><path d="M228.295,178.789l-6.811,4.593l-4.35,-1.301l5.352,-5.639l5.809,2.347Z" style="fill:#e9e4e2;"/><path d="M221.484,183.382l6.811,-4.593l0.2,8.614l-7.011,-0.015l0,-4.006Z" style="fill:#bdb0a8;"/><path d="M217.134,182.081l4.35,1.301l0,4.006l-4.35,-1.759l0,-3.548Z" style="fill:#d8cfcb;"/><path d="M236.128,242.706l-2.161,1.173l-4.137,7.535l-0.741,0.37l0,-2.656l2.1,-3.827l-2.1,1.11l-0.617,-0.309l-2.47,-1.234l-2.347,-1.173l-1.915,-0.989l7.349,-3.704l7.039,3.704Z" style="fill:#58433a;"/><path d="M221.74,245.176l0,-2.47l1.915,0.989l-1.915,1.481Zm6.732,0.926l-4.076,3.335l-2.469,-1.235l4.075,-3.334l2.47,1.234Zm-1.359,4.695l1.976,-1.669l0,2.656l-1.976,-0.987Z" style="fill:#3d2410;"/><path d="M226.002,244.868l-4.075,3.334l-0.187,0.124l0,-3.15l1.915,-1.481l2.347,1.173Zm-1.606,4.569l4.076,-3.335l0.617,0.309l0,2.717l-1.976,1.669l-2.717,-1.36Z" style="fill:#f07e21;"/><path d="M229.089,249.128l0,-2.717l2.1,-1.11l-2.1,3.827Zm7.039,-5.249l-3.273,5.928l-3.025,1.607l4.137,-7.535l2.161,-1.173l0,1.173Z" style="fill:#fecd03;"/><path d="M232.855,249.807l3.273,-5.928l0,4.2l-3.273,1.728Z" style="fill:#72564b;"/><path d="M272.746,93.094l14.819,6.668l22.043,-10.373l0.247,7.409l-22.415,19.698l-14.325,-8.645l-0.369,-14.757Z" style="fill:#bdb0a8;"/><path d="M309.608,89.389l-22.043,10.373l-14.819,-6.668l29.02,-7.596l7.842,3.891Z" style="fill:#e9e4e2;"/><path d="M284.938,166.075l-7.04,3.691l-7.383,-3.691l7.383,-3.692l7.04,3.692Z" style="fill:#f4993f;"/><path d="M277.898,191.516l0,-21.75l7.04,-3.691l0,21.378l-7.04,4.063Z" style="fill:#d2c2bd;"/><path d="M277.898,169.766l0,21.75l-1.716,-3.292l-5.667,-0.771l0,-21.378l7.383,3.691Z" style="fill:#a89f9b;"/><path d="M272.405,167.036l-1.884,-0.958l7.348,-3.704l7.04,3.704l-2.162,1.142l-4.167,7.564l-0.711,0.372l0,-2.656l2.1,-3.828l-2.1,1.111l-0.648,-0.339l-2.469,-1.235l-2.347,-1.173Z" style="fill:#58433a;"/><path d="M274.752,168.209l-4.076,3.334l-0.155,0.124l0,-3.119l1.884,-1.512l2.347,1.173Zm-1.607,4.568l4.076,-3.333l0.648,0.339l0,2.717l-2.007,1.637l-2.717,-1.36Z" style="fill:#f07e21;"/><path d="M273.145,172.777l-2.469,-1.234l4.076,-3.334l2.469,1.235l-4.076,3.333Zm4.724,2.379l-2.007,-1.019l2.007,-1.637l0,2.656Zm-5.464,-8.12l-1.884,1.512l0,-2.47l1.884,0.958Z" style="fill:#3d2410;"/><path d="M277.869,172.5l0,-2.717l2.1,-1.111l-2.1,3.828Zm7.04,-6.422l0,1.142l-3.274,5.959l-3.055,1.605l4.167,-7.564l2.162,-1.142Z" style="fill:#fecd03;"/><path d="M284.909,167.22l0,4.231l-3.274,1.728l3.274,-5.959Z" style="fill:#72564b;"/><path d="M274.819,107.604l3.073,1.573l0,58.507l-3.073,-1.609l0,-58.471Z" style="fill:#3f3530;"/><path d="M277.892,167.684l0,-58.507l-3.073,-1.573l3.073,-1.608l3.038,1.608l0,58.471l-3.038,1.609Z" style="fill:#6a5b51;"/><path d="M278.805,101.976l0.2,8.613l-7.011,-0.014l-4.35,-1.76l0,-3.548l5.352,-5.638l5.809,2.347Z" style="fill:#787878;"/><path d="M313.003,146.284l3.228,-4.775l-37.623,-37.231l3.946,-40.068l-7.084,-4.083l2.354,-1.177l7.083,4.082l-3.946,40.07l37.624,37.231l-3.229,4.774l-2.353,1.177Zm-41.327,-47.519l-0.149,1.522l-40.208,-6.251l2.354,-1.177l38.003,5.906Z" style="fill:#787878;"/><path d="M231.319,94.036l40.208,6.251l0.149,-1.522l3.794,-38.638l7.084,4.083l-3.946,40.068l37.623,37.231l-3.228,4.775l-38.455,-38.062l-41.014,-6.366l-2.215,-7.82Z" style="fill:#cdcccc;"/><path d="M277.075,102.162l-6.811,4.592l-4.35,-1.303l5.352,-5.636l5.809,2.347Z" style="fill:#e9e4e2;"/><path d="M270.264,110.76l0,-4.006l6.811,-4.592l0.201,8.612l-7.012,-0.014Z" style="fill:#bdb0a8;"/><path d="M270.264,106.754l0,4.006l-4.35,-1.759l0,-3.55l4.35,1.303Z" style="fill:#d8cfcb;"/><path d="M386.865,157.249l0.789,2.916l-3.047,0.605l-2.209,2.523l0,1.366l-0.841,-0.867l-2.26,0.026l-2.863,3.021l-3.915,-1.13l1.208,-0.709l3.154,-2.706l1.445,0l-3.233,-1.498l2.813,-1.918l2.338,2.286l2.154,-2.286l2.654,-0.552l1.813,-1.077Z" style="fill:#a99583;"/><path d="M128.194,276.174l-1.111,-0.556l0,-1.235l1.111,-0.556l1.05,0.556l0,1.235l-1.05,0.556Zm22.785,-0.556l-1.05,0.556l-1.112,-0.556l0,-1.235l1.112,-0.556l1.05,0.556l0,1.235Zm-50.386,-28.651l-1.049,0.556l-1.112,-0.556l0,-1.234l1.112,-0.557l1.049,0.557l0,1.234Zm93.794,56.499l1.05,0.556l0,1.235l-1.05,0.555l-1.111,-0.555l0,-1.235l1.111,-0.556Zm-32.603,-17.412l-1.111,-0.557l0,-1.234l1.111,-0.556l1.051,0.556l0,1.234l-1.051,0.557Z" style="fill:#fff;"/><text x="960.409px" y="96.121px" style="font-family:'Arial-BoldMT', 'Arial', sans-serif;font-weight:700;font-size:75.672px;">Carbon Offset</text><text x="961.704px" y="137.754px" style="font-family:'ArialMT', 'Arial', sans-serif;font-size:29.121px;">Reduce your website&apos;s carbon footprint</text><defs><radialGradient id="_Radial1" cx="0" cy="0" r="1" gradientUnits="userSpaceOnUse" gradientTransform="matrix(150.261,0,0,150.261,214.949,239.928)"><stop offset="0" style="stop-color:#fef1ce;stop-opacity:1"/><stop offset="1" style="stop-color:#fff;stop-opacity:1"/></radialGradient></defs></svg>