<?xml version="1.0" encoding="UTF-8" standalone="no"?><!DOCTYPE svg PUBLIC "-//W3C//DTD SVG 1.1//EN" "http://www.w3.org/Graphics/SVG/1.1/DTD/svg11.dtd"><svg width="100%" height="100%" viewBox="0 0 256 256" version="1.1" xmlns="http://www.w3.org/2000/svg" xmlns:xlink="http://www.w3.org/1999/xlink" xml:space="preserve" xmlns:serif="http://www.serif.com/" style="fill-rule:evenodd;clip-rule:evenodd;stroke-linejoin:round;stroke-miterlimit:2;"><g><path d="M241.636,93.625c0,67.216 -43.068,126.023 -107.216,146.25l-4.715,1.477c-0.569,0.171 -1.137,0.284 -1.705,0.284c-0.568,0 -1.136,-0.113 -1.705,-0.284l-4.715,-1.477c-64.148,-20.227 -107.216,-79.034 -107.216,-146.25l0,-39.489c0,-2.505 1.591,-4.664 3.977,-5.397l107.954,-34.091c1.08,-0.398 2.33,-0.398 3.41,0l107.954,34.091c2.386,0.733 3.977,2.892 3.977,5.397l0,39.489Zm-113.636,-90.398l-125,38.068l0,51.302c0,73.017 46.932,136.363 116.818,157.619l8.182,2.557l8.182,-2.557c69.886,-21.256 116.818,-84.602 116.818,-157.619l0,-51.302l-125,-38.068Z" style="fill:#36c546;fill-rule:nonzero;"/><path d="M171.296,208.854c-11.989,8.687 -25.568,15.506 -40.284,20.17l-3.011,0.966l-3.012,-0.909c-14.716,-4.665 -28.295,-11.54 -40.284,-20.17c9.205,-14.943 25.392,-24.091 43.296,-24.091c17.84,0 34.034,9.085 43.295,24.034" style="fill:#36c546;fill-rule:nonzero;"/><path d="M230.273,58.286l0,35.341c0,42.784 -18.864,81.875 -49.943,108.238c-10.398,-16.085 -27.5,-26.426 -46.648,-28.13l0,-11.642l5.682,0c3.125,0 5.681,-2.563 5.681,-5.682c0,-3.125 -2.556,-5.682 -5.681,-5.682l-5.682,0l0,-45.455l11.363,0c18.807,0 34.091,-15.289 34.091,-34.09l0,-5.682c0,-3.125 -2.556,-5.682 -5.681,-5.682l-17.046,0c-9.829,0 -18.693,4.148 -24.886,10.852c-4.773,-12.96 -17.273,-22.216 -31.932,-22.216l-17.046,0c-3.125,0 -5.681,2.557 -5.681,5.682l0,5.682c0,18.801 15.284,34.091 34.091,34.091l11.363,0l0,28.409l-5.682,0c-3.125,0 -5.681,2.557 -5.681,5.682c0,3.119 2.556,5.682 5.681,5.682l5.682,0l0,40.051c-19.148,1.704 -36.25,12.045 -46.648,28.13c-31.079,-26.363 -49.943,-65.454 -49.943,-108.238l0,-35.341l102.273,-32.279l102.273,32.279Z" style="fill:#36c546;fill-rule:nonzero;"/><path d="M167.773,71.181c0,12.556 -10.171,22.727 -22.728,22.727l-11.363,0l0,-0.341c0.17,-12.386 10.284,-22.386 22.727,-22.386l11.364,0Z" style="fill:#36c546;fill-rule:nonzero;"/><path d="M122.318,82.544l-11.363,0c-12.557,0 -22.728,-10.17 -22.728,-22.727l11.364,0c12.557,0 22.727,10.171 22.727,22.727" style="fill:#36c546;fill-rule:nonzero;"/></g></svg>